<?xml version="1.0" encoding="utf-8"?>
<!-- Generator: Adobe Illustrator 16.0.0, SVG Export Plug-In . SVG Version: 6.00 Build 0)  -->
<!DOCTYPE svg PUBLIC "-//W3C//DTD SVG 1.1//EN" "http://www.w3.org/Graphics/SVG/1.1/DTD/svg11.dtd">
<svg version="1.1" id="圖層_1" xmlns="http://www.w3.org/2000/svg" xmlns:xlink="http://www.w3.org/1999/xlink" x="0px" y="0px"
	 width="448px" height="512px" viewBox="0 0 448 512" enable-background="new 0 0 448 512" xml:space="preserve">
<path d="M224,256c70.7,0,128-57.3,128-128S294.7,0,224,0S96,57.3,96,128S153.3,256,224,256z M313.6,288h-16.7
	c-22.2,10.199-46.9,16-72.9,16s-50.6-5.801-72.9-16h-16.7C60.2,288,0,348.199,0,422.4V464c0,26.5,21.5,48,48,48h352
	c26.5,0,48-21.5,48-48V422.4C448,348.199,387.8,288,313.6,288z"/>
</svg>
